<?xml version="1.0" encoding="iso-8859-1"?>
<!-- Generator: Adobe Illustrator 19.0.0, SVG Export Plug-In . SVG Version: 6.00 Build 0)  -->
<svg version="1.1" id="Capa_1" xmlns="http://www.w3.org/2000/svg" xmlns:xlink="http://www.w3.org/1999/xlink" x="0px" y="0px"
	 viewBox="0 0 464 464" style="enable-background:new 0 0 464 464;" xml:space="preserve">
<circle style="fill:#FFD33F;" cx="224" cy="48" r="40"/>
<circle style="fill:#FAA41B;" cx="288" cy="40" r="40"/>
<g>
	<circle style="fill:#FFD33F;" cx="336" cy="40" r="40"/>
	<circle style="fill:#FFD33F;" cx="128" cy="48" r="40"/>
</g>
<circle style="fill:#FAA41B;" cx="176" cy="40" r="40"/>
<path style="fill:#393856;" d="M384,89.512V56H80v33.512c0.145,13.764-5.539,26.946-15.648,36.288
	C24.121,160.541,0.695,210.849,0,264c0,110.456,103.872,200,232,200s232-89.544,232-200c-0.695-53.151-24.121-103.459-64.352-138.2
	C389.539,116.458,383.855,103.276,384,89.512z"/>
<path style="fill:#6B778A;" d="M80,32h304c8.837,0,16,7.163,16,16l0,0c0,8.837-7.163,16-16,16H80c-8.837,0-16-7.163-16-16l0,0
	C64,39.163,71.163,32,80,32z"/>
<path style="fill:#1F9342;" d="M248,392c-3.445,0.001-6.503-2.204-7.592-5.472L231.04,358.4
	c-15.296-45.451-11.782-95.131,9.76-137.976c1.975-3.954,6.782-5.559,10.736-3.584c3.954,1.975,5.559,6.782,3.584,10.736l0,0
	c-19.658,39.049-22.878,84.339-8.944,125.776l9.376,28.12c1.396,4.192-0.87,8.722-5.062,10.118
	C249.687,391.858,248.846,391.996,248,392z"/>
<path style="fill:#2CB357;" d="M288.568,280.568c9.373,9.373,24.571,9.373,33.944,0s9.373-24.571,0-33.944
	c-16-16-42.4-21.168-62.616-22.624c20.192-1.464,46.616-6.64,62.616-22.632c9.373-9.373,9.373-24.571,0-33.944
	s-24.571-9.373-33.944,0c9.534-9.208,9.798-24.402,0.59-33.936s-24.402-9.798-33.936-0.59c-0.2,0.193-0.396,0.39-0.59,0.59
	c-16,16-21.176,42.4-22.632,62.616c-1.456-20.184-6.632-46.624-22.632-62.616c-9.534-9.208-24.728-8.944-33.936,0.59
	c-8.983,9.301-8.983,24.046,0,33.346c-9.373-9.373-24.571-9.373-33.944,0s-9.373,24.571,0,33.944c16,16,42.4,21.168,62.624,22.632
	c-20.192,1.456-46.624,6.632-62.624,22.624c-9.373,9.373-9.373,24.571,0,33.944s24.571,9.373,33.944,0
	c-9.297,9.447-9.175,24.643,0.272,33.94c9.339,9.19,24.323,9.192,33.664,0.004c16-16,21.168-42.4,22.632-62.616
	c1.456,20.184,6.632,46.616,22.632,62.616c9.45,9.295,24.645,9.17,33.94-0.28C297.76,304.891,297.758,289.907,288.568,280.568z"/>
<path style="fill:#2B2A41;" d="M406.968,132.712C418.162,156.233,423.98,181.951,424,208c0,110.456-103.872,200-232,200
	c-65.064,0.886-127.878-23.789-174.944-68.72C51.56,412.416,134.768,464,232,464c128.128,0,232-89.544,232-200
	C463.469,214.338,442.903,166.995,406.968,132.712z"/>
<g>
</g>
<g>
</g>
<g>
</g>
<g>
</g>
<g>
</g>
<g>
</g>
<g>
</g>
<g>
</g>
<g>
</g>
<g>
</g>
<g>
</g>
<g>
</g>
<g>
</g>
<g>
</g>
<g>
</g>
</svg>
