<?xml version="1.0" encoding="iso-8859-1"?>
<!-- Generator: Adobe Illustrator 19.0.0, SVG Export Plug-In . SVG Version: 6.00 Build 0)  -->
<svg xmlns="http://www.w3.org/2000/svg" xmlns:xlink="http://www.w3.org/1999/xlink" version="1.1" id="Capa_1" x="0px" y="0px" viewBox="0 0 512.132 512.132" style="enable-background:new 0 0 512.132 512.132;" xml:space="preserve" width="512" height="512">
<g>
	<path style="fill:#FF876C;" d="M414.566,162.632c16.57,0,30,13.43,30,30v120h-60v-120   C384.566,176.062,397.996,162.632,414.566,162.632z"/>
	<path style="fill:#FF9E90;" d="M444.566,97.632c-16.57,0-30,13.43-30,30v120h60v-120   C474.566,111.062,461.136,97.632,444.566,97.632z"/>
	<path style="fill:#FF9E90;" d="M474.566,67.632c-4.51,0-8.79,1-12.63,2.79l-13.15,250.93l-54.22,128.28l101.885-143.385   c4.779-6.725,8.115-19.365,8.115-27.615v-181C504.566,81.062,491.136,67.632,474.566,67.632z"/>
	<path style="fill:#FFB4B3;" d="M474.566,97.632v196c0,8.25-2.6,20.72-5.78,27.72l-74.22,128.28v55H271.155v-30l32.412-113.57   l141-113.43v-150c0-12.06,7.11-22.45,17.37-27.21C469.396,75.182,474.566,85.582,474.566,97.632z"/>
	<path style="fill:#FFCAD6;" d="M393.359,226.419c11.71-11.72,30.71-11.72,42.42,0c5.86,5.85,8.79,13.53,8.79,21.21   c0,7.68-2.93,15.36-8.79,21.21L331.155,373.474v41.158c0,33-27,60-60,60V373.544c0-16.57,6.68-31.6,17.53-42.46L393.359,226.419z"/>
	<path style="fill:#FF876C;" d="M97.566,162.632c-16.57,0-30,13.43-30,30v120h60v-120   C127.566,176.062,114.136,162.632,97.566,162.632z"/>
	<path style="fill:#FF9E90;" d="M67.566,97.632c-16.57,0-30,13.43-30,30v120h60v-120C97.566,111.062,84.136,97.632,67.566,97.632z"/>
	<polygon style="fill:#FF9E90;" points="240.978,474.632 240.978,504.632 210.978,504.632 150.978,384.364  "/>
	<path style="fill:#FFB4B3;" d="M223.448,331.084L118.779,226.419c-6.37-6.38-14.9-9.28-23.24-8.72l115.438,248.843   c8.84,5.14,19.09,8.09,30,8.09l0-101.088C240.978,356.974,234.298,341.944,223.448,331.084z"/>
	<path style="fill:#FFB4B3;" d="M203.566,366.132l-136-118.5v-150c0-16.57-13.43-30-30-30s-30,13.43-30,30v181   c0,8.25,3.336,20.89,8.115,27.615l101.885,143.385v55h93.412v-38.09L203.566,366.132z"/>
	<path style="fill:#FFCAD6;" d="M210.978,373.544l0,92.998c-17.9-10.41-30-29.82-30-51.91l0-41.158L76.353,268.839   c-5.86-5.85-8.79-13.53-8.79-21.21c0-7.68,2.93-15.36,8.79-21.21c5.33-5.34,12.19-8.25,19.18-8.72c5.77,0.47,11.44,3.38,15.85,8.72   l85.115,104.665C205.468,341.944,210.978,356.974,210.978,373.544z"/>
	<polygon style="fill:#FF9441;" points="315.316,89.05 329.303,7.5 296.33,24.835 245.316,119.05 348.458,150.598 374.566,146.805     "/>
	<polygon style="fill:#FFB739;" points="296.33,24.835 256.066,46.003 182.829,7.5 196.816,89.05 137.566,146.805 219.448,158.703    256.066,232.9 292.685,158.703 348.458,150.598 285.316,89.05  "/>
	<path d="M135.066,232.099v-39.467c0-18.11-12.904-33.261-30-36.745v-28.255c0-18.334-13.229-33.626-30.64-36.86   c-3.233-17.411-18.526-30.64-36.86-30.64c-20.678,0-37.5,16.822-37.5,37.5v181c0,9.137,3.554,23.589,9.501,31.959l100.499,141.435   v52.606c0,4.143,3.358,7.5,7.5,7.5h123.412c4.142,0,7.5-3.357,7.5-7.5V373.543c0-18.074-7.007-35.037-19.73-47.763L135.066,232.099   z M120.066,192.632v24.998c-4.535-3.406-9.672-5.648-15-6.727v-39.481C113.796,174.519,120.066,182.855,120.066,192.632z    M90.066,127.632v83.273c-5.328,1.079-10.466,3.318-15,6.724V106.422C83.796,109.519,90.066,117.855,90.066,127.632z    M233.478,497.132H125.066v-47.5c0-1.557-0.484-3.075-1.386-4.344L21.795,301.904c-3.584-5.045-6.729-15.92-6.729-23.271v-181   c0-12.406,10.093-22.5,22.5-22.5s22.5,10.094,22.5,22.5v150.5c0,0.137,0.003,0.271,0.011,0.406   c0.228,9.677,4.104,18.741,10.973,25.61l104.625,104.625c2.929,2.928,7.678,2.928,10.606,0c2.929-2.93,2.929-7.678,0-10.607   L81.656,263.542c-4.25-4.25-6.59-9.9-6.59-15.91c0-6.011,2.34-11.66,6.59-15.909c4.243-4.243,9.772-6.414,15.343-6.553   c0.188,0.014,0.376,0.029,0.567,0.029s0.379-0.015,0.567-0.029c5.571,0.139,11.1,2.31,15.343,6.553l104.665,104.664   c9.89,9.892,15.337,23.088,15.337,37.156V497.132z"/>
	<path d="M474.566,60.132c-18.334,0-33.627,13.229-36.86,30.64c-17.411,3.234-30.64,18.526-30.64,36.86v28.255   c-17.096,3.484-30,18.635-30,36.745v39.467l-93.682,93.683c-12.723,12.725-19.729,29.688-19.729,47.762v131.089   c0,4.143,3.358,7.5,7.5,7.5h123.412c4.142,0,7.5-3.357,7.5-7.5v-52.606l100.499-141.435c5.947-8.37,9.501-22.822,9.501-31.959v-181   C512.066,76.955,495.244,60.132,474.566,60.132z M422.066,127.632c0-9.777,6.271-18.114,15-21.21v111.206   c-4.534-3.405-9.672-5.643-15-6.723V127.632z M407.066,171.422v39.481c-5.328,1.079-10.465,3.322-15,6.727v-24.999   C392.066,182.855,398.337,174.519,407.066,171.422z M497.066,278.632c0,7.352-3.145,18.227-6.729,23.271L388.452,445.289   c-0.902,1.269-1.386,2.787-1.386,4.344v47.5H278.655V373.543c0-14.068,5.447-27.265,15.336-37.155l104.665-104.665   c8.773-8.773,23.048-8.773,31.82,0c4.25,4.249,6.59,9.898,6.59,15.909c0,6.01-2.34,11.66-6.59,15.909L325.851,368.167   c-2.929,2.93-2.929,7.678,0,10.607c2.929,2.928,7.678,2.928,10.606,0l104.625-104.626c6.869-6.868,10.745-15.933,10.973-25.609   c0.007-0.135,0.011-0.27,0.011-0.406v-150.5c0-12.406,10.093-22.5,22.5-22.5s22.5,10.094,22.5,22.5V278.632z"/>
	<path d="M375.645,154.227c2.825-0.41,5.172-2.389,6.054-5.104c0.882-2.715,0.146-5.695-1.898-7.688l-56.426-55.002l13.32-77.665   c0.482-2.813-0.674-5.657-2.984-7.335c-2.31-1.677-5.372-1.899-7.898-0.571l-69.747,36.668L186.32,0.861   c-2.528-1.328-5.588-1.105-7.898,0.571c-2.31,1.678-3.466,4.521-2.984,7.335l8.841,51.551c0.7,4.083,4.578,6.834,8.66,6.124   c4.083-0.699,6.825-4.577,6.125-8.659l-6.272-36.573l59.786,31.432c2.186,1.148,4.795,1.148,6.98,0l59.786-31.432l-11.418,66.573   c-0.417,2.433,0.389,4.915,2.157,6.639l48.368,47.146l-66.843,9.713c-2.443,0.354-4.554,1.889-5.647,4.103l-29.893,60.57   l-29.893-60.57c-1.093-2.214-3.204-3.748-5.647-4.103l-66.843-9.713l48.368-47.146c2.966-2.892,3.027-7.64,0.136-10.606   c-2.892-2.967-7.64-3.027-10.605-0.136l-59.25,57.755c-2.044,1.993-2.78,4.974-1.898,7.688c0.882,2.716,3.229,4.694,6.054,5.104   l77.979,11.331l34.874,70.661c1.264,2.56,3.871,4.181,6.726,4.181s5.462-1.621,6.726-4.181l34.874-70.661L375.645,154.227z"/>
</g>















</svg>
